<?xml version="1.0" encoding="UTF-8"?>
<svg width="420px" height="420px" viewBox="0 0 420 420" version="1.1" xmlns="http://www.w3.org/2000/svg" xmlns:xlink="http://www.w3.org/1999/xlink">
    <!-- Generator: Sketch 64 (93537) - https://sketch.com -->
    <title>Product logo_Core_Dark</title>
    <desc>Created with Sketch.</desc>
    <g id="页面-1" stroke="none" stroke-width="1" fill="none" fill-rule="evenodd">
        <g id="Product-logo_Core_Dark" fill="#FFFFFF" fill-rule="nonzero">
            <path d="M253.860573,156.954377 L255.821828,156.978105 C295.238461,158.455783 317.422365,174.469194 335.087253,197.869031 C327.000366,278.998329 256.159752,338.259677 175.707761,334.971975 C134.774903,332.513052 99.0193106,314.104932 73.4781398,286.342584 C117.15129,226.130023 187.842433,158.254532 251.90801,156.972743 L253.860573,156.954377 Z" id="路径" fill-opacity="0.802939248"></path>
            <path d="M39.5582172,227.48298 L39.5883593,227.441177 C54.845168,204.978093 79.2848361,182.659842 112.024423,191.64225 C174.284304,209.973694 232.726627,247.526129 268.359454,246.465565 C302.271458,245.456219 315.965826,235.372634 330.824529,221.540288 C312.717554,290.23882 248.104147,337.930482 175.707761,334.971975 C110.137203,331.033013 57.8520266,286.166813 39.5582172,227.48298 Z" id="路径" fill-opacity="0.802939248"></path>
            <path d="M348.099471,310.923399 L409.359965,365.982405 C422.05317,377.390734 423.080432,396.886069 411.655991,409.556308 C400.373508,422.06911 381.128285,423.213448 368.437473,412.215972 L368.011372,411.839929 L303.311988,353.689535 C320.301989,341.744786 335.408493,327.31237 348.099471,310.923399 Z M0.563447611,172.591899 C6.05992071,71.7694585 94.0034902,-5.22222339 194.772164,0.277182463 C295.540837,7.60972374 374.323618,93.7670824 366.994987,194.589523 C359.666357,295.411963 273.554945,372.403645 172.786271,366.904239 C72.0175978,361.404833 -4.93302548,273.41434 0.563447611,172.591899 Z M192.536325,31.6937103 C110.076363,28.3239515 36.0306829,92.3493629 32.6649699,174.908446 C29.2992569,257.46753 91.5649428,329.917337 175.707761,334.971975 C258.167724,338.341734 330.530548,276.001201 335.579117,191.757239 C338.911172,110.023747 277.917894,38.1983551 195.054003,31.8655107 L192.536325,31.6937103 Z" id="形状"></path>
        </g>
    </g>
</svg>