<?xml version="1.0" encoding="UTF-8"?>
<svg width="410px" height="410px" viewBox="0 0 410 410" version="1.1" xmlns="http://www.w3.org/2000/svg" xmlns:xlink="http://www.w3.org/1999/xlink">
    <!-- Generator: Sketch 64 (93537) - https://sketch.com -->
    <title>Product logo_Core_Colorful</title>
    <desc>Created with Sketch.</desc>
    <g id="页面-1" stroke="none" stroke-width="1" fill="none" fill-rule="evenodd">
        <g id="Product-logo_Core_Colorful" fill-rule="nonzero">
            <path d="M247.816273,153.217368 L249.730832,153.240531 C288.208974,154.683027 309.86469,170.315166 327.108985,193.157863 C319.214643,272.355512 250.060711,330.205875 171.524243,326.996452 C131.565977,324.596074 96.6617079,306.626243 71.7286603,279.524904 C114.361973,220.745975 183.369994,154.486567 245.9102,153.235297 L247.816273,153.217368 Z" id="路径" fill="#FFCC66"></path>
            <path d="M38.6163549,222.066719 L38.6457794,222.025911 C53.5393306,200.097662 77.397102,178.310798 109.357175,187.079339 C170.134678,204.974321 227.185517,241.63265 261.969944,240.597337 C295.074519,239.612024 308.442831,229.768524 322.947755,216.265519 C305.271898,283.328372 242.196905,329.884518 171.524243,326.996452 C107.514888,323.151274 56.4745974,279.353317 38.6163549,222.066719 Z" id="路径" fill="#FF7673"></path>
            <path d="M144.12196,200.700533 L145.394258,199.629507 L148.017597,200.629532 C190.687053,216.991889 224.624885,234.658348 251.392937,239.218535 C284.871555,244.92193 306.911309,229.082649 323.090876,215.727802 C305.610791,283.077835 242.386793,329.892278 171.524243,326.996452 C132.29206,324.639691 97.9318706,307.274163 73.0976863,280.993198 C91.8433651,252.877204 116.721144,223.921369 144.12196,200.700533 Z" id="路径" fill="#FF9F73"></path>
            <path d="M339.811388,303.520461 L399.613299,357.268538 C412.004285,368.40524 413.007088,387.4364 401.854658,399.804967 C390.840805,412.019846 372.053802,413.136937 359.665152,402.401306 L359.249197,402.034217 L296.090274,345.268355 C312.675751,333.608005 327.422577,319.519218 339.811388,303.520461 Z M0.550032192,168.482568 C5.91563688,70.0606619 91.7653119,-5.09788474 190.134731,0.270582881 C288.50415,7.42853984 365.411151,91.5345328 358.257011,189.956439 C351.102872,288.378345 267.041732,363.536891 168.672313,358.168424 C70.3028931,352.799956 -4.8155725,266.904475 0.550032192,168.482568 Z M187.952127,30.9390981 C107.455497,27.6495717 35.1728095,90.1505685 31.8872325,170.743959 C28.6016555,251.33735 89.3848251,322.062163 171.524243,326.996452 C252.020873,330.285978 322.660773,269.429744 327.589138,187.19159 C330.841859,107.404134 271.300801,37.2888705 190.40986,31.106808 L187.952127,30.9390981 Z" id="形状" fill="#009999"></path>
        </g>
    </g>
</svg>