<?xml version="1.0" encoding="UTF-8"?>
<svg width="1654px" height="300px" viewBox="0 0 1654 300" version="1.1" xmlns="http://www.w3.org/2000/svg" xmlns:xlink="http://www.w3.org/1999/xlink">
    <!-- Generator: Sketch 58 (84663) - https://sketch.com -->
    <title>编组 2</title>
    <desc>Created with Sketch.</desc>
    <g id="页面-1" stroke="none" stroke-width="1" fill="none" fill-rule="evenodd">
        <g id="jinabox-logo" transform="translate(-156.000000, -250.000000)">
            <g id="编组-2" transform="translate(156.000000, 250.000000)">
                <g id="编组">
                    <path d="M70,0 C108.659932,0 140,31.3400675 140,70 C140,108.659932 108.659932,140 70,140 C31.3400675,140 0,108.659932 0,70 C0,31.3400675 31.3400675,0 70,0 Z M48.2641509,38.7795441 C44.9504424,38.7795441 42.2641509,41.4658356 42.2641509,44.7795441 L42.2641509,44.7795441 L42.2641509,95.2204559 C42.2641509,96.3880734 42.6048353,97.5303211 43.2444398,98.5071716 C45.0596427,101.279481 48.7785567,102.05537 51.5508666,100.240167 L51.5508666,100.240167 L90.0693811,75.0197112 C90.7601297,74.5674353 91.3501007,73.9774643 91.8023766,73.2867156 C93.6175795,70.5144057 92.841691,66.7954918 90.0693811,64.9802888 L90.0693811,64.9802888 L51.5508666,39.7598329 C50.5740162,39.1202285 49.4317684,38.7795441 48.2641509,38.7795441 Z" id="形状结合" fill="#FFD273"></path>
                    <path d="M267,0 L183.554502,0 C170.54571,2.3896764e-15 160,10.5457099 160,23.5545024 C160,36.5632948 170.54571,47.1090047 183.554502,47.1090047 L242.890995,47.1090047 C248.413843,47.1090047 252.890995,51.5861572 252.890995,57.1090047 L252.890995,116.445498 C252.890995,129.45429 263.436705,140 276.445498,140 C289.45429,140 300,129.45429 300,116.445498 L300,33 C300,14.7746033 285.225397,-3.34795107e-15 267,0 Z" id="形状结合" fill="#009999" fill-rule="nonzero"></path>
                    <path d="M107,160 L23.5545024,160 C10.5457099,160 -1.5931176e-15,170.54571 0,183.554502 C1.5931176e-15,196.563295 10.5457099,207.109005 23.5545024,207.109005 L82.8909953,207.109005 C88.4138428,207.109005 92.8909953,211.586157 92.8909953,217.109005 L92.8909953,276.445498 C92.8909953,289.45429 103.436705,300 116.445498,300 C129.45429,300 140,289.45429 140,276.445498 L140,193 C140,174.774603 125.225397,160 107,160 Z" id="形状结合备份" fill="#009999" fill-rule="nonzero" transform="translate(70.000000, 230.000000) scale(-1, -1) translate(-70.000000, -230.000000) "></path>
                    <g id="编组备份-3" transform="translate(160.000000, 160.000000)" fill="#FF7673">
                        <circle id="椭圆形" cx="70" cy="70" r="70"></circle>
                    </g>
                </g>
                <path d="M475.013778,31.5456292 C475.013778,35.2216002 473.691144,38.3819913 471.045836,41.0268972 C468.400528,43.6718032 465.239656,44.9942363 461.563127,44.9942363 C457.886597,44.9942363 454.725725,43.6718032 452.080417,41.0268972 C449.435109,38.3819913 448.112475,35.2216002 448.112475,31.5456292 C448.112475,27.8696582 449.435109,24.7092671 452.080417,22.0643612 C454.725725,19.4194552 457.886597,18.0970221 461.563127,18.0970221 C465.239656,18.0970221 468.400528,19.4194552 471.045836,22.0643612 C473.691144,24.7092671 475.013778,27.8696582 475.013778,31.5456292 Z M450.802606,225.446686 L450.802606,85.581172 C450.802606,82.6224636 451.856229,80.0896679 453.963509,77.9827089 C456.070788,75.87575 458.603969,74.8222863 461.563127,74.8222863 C464.522285,74.8222863 467.055465,75.87575 469.162745,77.9827089 C471.270024,80.0896679 472.323648,82.6224636 472.323648,85.581172 L472.323648,225.446686 C472.323648,243.288594 466.024322,258.507782 453.425483,271.104707 C440.826643,283.701632 425.605141,290 407.760521,290 C404.801363,290 402.268182,288.946536 400.160903,286.839577 C398.053624,284.732618 397,282.199823 397,279.241114 C397,276.282406 398.053624,273.74961 400.160903,271.642651 C402.192922,269.610941 404.620965,268.55882 407.445098,268.48626 L407.760521,268.482229 C419.686825,268.482229 429.841965,264.290788 438.226246,255.907781 C446.610528,247.524774 450.802606,237.371177 450.802606,225.446686 Z M581.368476,31.5456292 C581.368476,35.2216002 580.045842,38.3819913 577.400534,41.0268972 C574.755226,43.6718032 571.594355,44.9942363 567.917825,44.9942363 C564.241295,44.9942363 561.080424,43.6718032 558.435116,41.0268972 C555.789808,38.3819913 554.467174,35.2216002 554.467174,31.5456292 C554.467174,27.8696582 555.789808,24.7092671 558.435116,22.0643612 C561.080424,19.4194552 564.241295,18.0970221 567.917825,18.0970221 C571.594355,18.0970221 574.755226,19.4194552 577.400534,22.0643612 C580.045842,24.7092671 581.368476,27.8696582 581.368476,31.5456292 Z M557.157304,85.581172 C557.157304,82.6224636 558.210928,80.0896679 560.318207,77.9827089 C562.425486,75.87575 564.958667,74.8222863 567.917825,74.8222863 C570.876983,74.8222863 573.410164,75.87575 575.517443,77.9827089 C577.624722,80.0896679 578.678346,82.6224636 578.678346,85.581172 L578.678346,214.6878 C578.678346,217.646509 577.624722,220.179304 575.517443,222.286263 C573.410164,224.393222 570.876983,225.446686 567.917825,225.446686 C564.958667,225.446686 562.425486,224.393222 560.318207,222.286263 C558.210928,220.179304 557.157304,217.646509 557.157304,214.6878 L557.157304,85.581172 Z M661.359898,85.581172 C661.359898,82.6224636 662.413522,80.0896679 664.520801,77.9827089 C666.628081,75.87575 669.161261,74.8222863 672.120419,74.8222863 C675.079577,74.8222863 677.612758,75.87575 679.720037,77.9827089 C681.827317,80.0896679 682.88094,82.6224636 682.88094,85.581172 L682.88094,94.3227666 C696.331659,81.3223814 712.472279,74.8222863 731.303285,74.8222863 C750.582649,74.8222863 767.059532,81.6585932 780.734429,95.3314121 C794.409327,109.004231 801.246673,125.47861 801.246673,144.755043 L801.246673,214.6878 C801.246673,217.646509 800.193049,220.179304 798.08577,222.286263 C795.97849,224.393222 793.44531,225.446686 790.486151,225.446686 C787.526993,225.446686 784.993813,224.393222 782.886533,222.286263 C780.779254,220.179304 779.72563,217.646509 779.72563,214.6878 L779.72563,144.755043 C779.72563,131.396027 774.995532,119.987239 765.535193,110.528338 C756.074854,101.069437 744.664333,96.3400576 731.303285,96.3400576 C717.942238,96.3400576 706.531716,101.069437 697.071378,110.528338 C687.611039,119.987239 682.88094,131.396027 682.88094,144.755043 L682.88094,214.6878 C682.88094,217.646509 681.827317,220.179304 679.720037,222.286263 C677.612758,224.393222 675.079577,225.446686 672.120419,225.446686 C669.161261,225.446686 666.628081,224.393222 664.520801,222.286263 C662.413522,220.179304 661.359898,217.646509 661.359898,214.6878 L661.359898,85.581172 Z M937.491937,96.3400576 C922.606475,96.3400576 909.918154,101.584962 899.426593,112.074928 C888.935033,122.564894 883.689331,135.251286 883.689331,150.134486 C883.689331,165.017686 888.935033,177.704078 899.426593,188.194044 C909.918154,198.68401 922.606475,203.928915 937.491937,203.928915 C952.377398,203.928915 965.065719,198.68401 975.55728,188.194044 C986.04884,177.704078 991.294542,165.017686 991.294542,150.134486 C991.294542,135.251286 986.04884,122.564894 975.55728,112.074928 C965.065719,101.584962 952.377398,96.3400576 937.491937,96.3400576 Z M991.294542,202.853026 C976.229737,217.915541 958.295715,225.446686 937.491937,225.446686 C916.688158,225.446686 898.933476,218.094854 884.227357,203.39097 C869.521238,188.687086 862.168289,170.935102 862.168289,150.134486 C862.168289,129.33387 869.521238,111.581886 884.227357,96.8780019 C898.933476,82.174118 916.688158,74.8222863 937.491937,74.8222863 C958.295715,74.8222863 976.050397,82.174118 990.756516,96.8780019 C1005.46263,111.581886 1012.81558,129.33387 1012.81558,150.134486 L1012.81558,214.6878 C1012.81558,217.646509 1011.76196,220.179304 1009.65468,222.286263 C1007.5474,224.393222 1005.01422,225.446686 1002.05506,225.446686 C999.095905,225.446686 996.562724,224.393222 994.455445,222.286263 C992.348166,220.179304 991.294542,217.646509 991.294542,214.6878 L991.294542,202.853026 Z M1178.05931,203.928915 C1192.94477,203.928915 1205.63309,198.68401 1216.12465,188.194044 C1226.61621,177.704078 1231.86191,165.017686 1231.86191,150.134486 C1231.86191,135.251286 1226.61621,122.564894 1216.12465,112.074928 C1205.63309,101.584962 1192.94477,96.3400576 1178.05931,96.3400576 C1163.17384,96.3400576 1150.48552,101.584962 1139.99396,112.074928 C1129.5024,122.564894 1124.2567,135.251286 1124.2567,150.134486 C1124.2567,165.017686 1129.5024,177.704078 1139.99396,188.194044 C1150.48552,198.68401 1163.17384,203.928915 1178.05931,203.928915 Z M1124.2567,20.7588857 L1124.2567,97.4159462 L1124.79473,96.8780019 C1139.50084,82.174118 1157.25553,74.8222863 1178.05931,74.8222863 C1198.86308,74.8222863 1216.61777,82.174118 1231.32388,96.8780019 C1246.03,111.581886 1253.38295,129.33387 1253.38295,150.134486 C1253.38295,170.935102 1246.03,188.687086 1231.32388,203.39097 C1216.61777,218.094854 1198.86308,225.446686 1178.05931,225.446686 C1157.25553,225.446686 1139.50084,218.094854 1124.79473,203.39097 C1110.08861,188.687086 1102.73566,170.935102 1102.73566,150.134486 L1102.73566,20.7588857 C1102.73566,17.8001773 1103.78928,15.2673817 1105.89656,13.1604227 C1108.00384,11.0534637 1110.53702,10 1113.49618,10 C1116.45534,10 1118.98852,11.0534637 1121.0958,13.1604227 C1123.20308,15.2673817 1124.2567,17.8001773 1124.2567,20.7588857 Z M1463.95192,150.134486 C1463.95192,170.935102 1456.59897,188.687086 1441.89285,203.39097 C1427.18673,218.094854 1409.43205,225.446686 1388.62827,225.446686 C1367.82449,225.446686 1350.06981,218.094854 1335.36369,203.39097 C1320.65757,188.687086 1313.30462,170.935102 1313.30462,150.134486 C1313.30462,129.33387 1320.65757,111.581886 1335.36369,96.8780019 C1350.06981,82.174118 1367.82449,74.8222863 1388.62827,74.8222863 C1409.43205,74.8222863 1427.18673,82.174118 1441.89285,96.8780019 C1456.59897,111.581886 1463.95192,129.33387 1463.95192,150.134486 Z M1388.62827,96.3400576 C1373.74281,96.3400576 1361.05449,101.584962 1350.56293,112.074928 C1340.07137,122.564894 1334.82566,135.251286 1334.82566,150.134486 C1334.82566,165.017686 1340.07137,177.704078 1350.56293,188.194044 C1361.05449,198.68401 1373.74281,203.928915 1388.62827,203.928915 C1403.51373,203.928915 1416.20205,198.68401 1426.69361,188.194044 C1437.18517,177.704078 1442.43088,165.017686 1442.43088,150.134486 C1442.43088,135.251286 1437.18517,122.564894 1426.69361,112.074928 C1416.20205,101.584962 1403.51373,96.3400576 1388.62827,96.3400576 Z M1523.02585,208.097983 L1571.4482,150 L1523.42937,92.5744476 C1521.72561,90.6019754 1520.87375,88.2709068 1520.87375,85.581172 C1520.87375,82.6224636 1521.92737,80.0896679 1524.03465,77.9827089 C1526.14193,75.87575 1528.67511,74.8222863 1531.63427,74.8222863 C1534.59343,74.8222863 1537.23869,75.9429923 1539.57015,78.184438 L1585.43687,133.189241 L1631.30359,78.184438 C1633.63505,75.9429923 1636.28032,74.8222863 1639.23948,74.8222863 C1642.19864,74.8222863 1644.73182,75.87575 1646.8391,77.9827089 C1648.94638,80.0896679 1650,82.6224636 1650,85.581172 C1650,88.2709068 1649.14813,90.6019754 1647.44438,92.5744476 L1599.42555,150 L1647.8479,208.097983 C1649.28264,209.980797 1650,212.177381 1650,214.6878 C1650,217.646509 1648.94638,220.179304 1646.8391,222.286263 C1644.73182,224.393222 1642.19864,225.446686 1639.23948,225.446686 C1636.28032,225.446686 1633.76956,224.370808 1631.70711,222.21902 L1585.43687,166.810759 L1539.16663,222.21902 C1537.10419,224.370808 1534.59343,225.446686 1531.63427,225.446686 C1528.67511,225.446686 1526.14193,224.393222 1524.03465,222.286263 C1521.92737,220.179304 1520.87375,217.646509 1520.87375,214.6878 C1520.87375,212.177381 1521.59111,209.980797 1523.02585,208.097983 Z" id="jinabox" stroke="#00939B" stroke-width="7" fill="#00939B" fill-rule="nonzero"></path>
            </g>
        </g>
    </g>
</svg>