<?xml version="1.0" encoding="UTF-8"?>
<svg width="82px" height="82px" viewBox="0 0 82 82" version="1.1" xmlns="http://www.w3.org/2000/svg" xmlns:xlink="http://www.w3.org/1999/xlink">
    <!-- Generator: Sketch 64 (93537) - https://sketch.com -->
    <title>Product logo/Core/light/Product logo_Core_light</title>
    <desc>Created with Sketch.</desc>
    <g id="页面-2" stroke="none" stroke-width="1" fill="none" fill-rule="evenodd">
        <g id="Product-logo/Core/light/Product-logo_Core_light" fill="#009999" fill-rule="nonzero">
            <path d="M49.7023894,30.5343757 C36.9792958,30.2420144 22.7628375,43.8440825 14.0880009,55.8308942 C19.0037416,60.8010356 27.2658297,65.1992751 34.7840214,65.4916364 C50.3987272,66.3687202 63.8712891,54.2156379 65.3170952,38.720491 C61.8471606,34.0427108 57.5097423,30.826737 49.7023894,30.5343757 Z" id="路径" fill-opacity="0.795782343"></path>
            <path d="M64.8095248,42.7571672 C61.7336201,45.6661009 59.1413415,47.8262352 52.2021049,48.0330175 C45.2628682,48.2397999 33.8816466,40.9180531 21.7569829,37.3438989 C15.2510658,35.5568218 10.4281446,40.1241941 7.47090958,44.5918869 C11.0195916,56.2078881 21.3699143,64.8454275 34.086025,65.4411199 C48.5764767,66.6325047 61.8522897,56.755938 64.8095248,42.7571672 Z" id="路径" fill-opacity="0.795782343"></path>
            <path d="M67.7347877,60.3068555 L79.6548703,70.9970046 C82.1246728,73.2120809 82.3245541,76.997355 80.1016237,79.4574476 C77.9063147,81.8869718 74.1616419,82.1091599 71.6923048,79.9738561 L71.6093956,79.9008426 L59.020804,68.6098995 C62.3264027,66.2907928 65.2655636,63.4887445 67.7347877,60.3068555 Z" id="形状结合"></path>
            <path d="M37.4399874,6.17797914 C53.8265024,7.16235189 65.9525235,21.2716946 65.297063,37.3497827 C64.3138721,53.7559951 50.2214691,65.8965923 34.1626844,65.2403439 C17.7761694,64.2559711 5.65014829,50.1466284 6.30560894,34.0685402 C6.96106959,17.990452 21.3812028,5.5217306 37.4399874,6.17797914 M37.8754091,0.0597219575 C18.2510679,-1.0112678 1.12437012,13.9825887 0.0539515131,33.6174009 C-1.0164671,53.2522131 13.9693934,70.388049 33.5937346,71.4590388 C53.2180758,72.5300285 69.9879673,57.536172 71.4151921,37.9013599 C72.8424169,18.2665478 57.4997502,1.48770832 37.8754091,0.0597219575 Z" id="形状"></path>
        </g>
    </g>
</svg>